<svg xmlns="http://www.w3.org/2000/svg" viewBox="0 0 64 64" role="img" aria-label="SignBridge favicon">
  <defs>
    <linearGradient id="bg" x1="10" y1="8" x2="56" y2="58" gradientUnits="userSpaceOnUse">
      <stop stop-color="#0EA5E9"/>
      <stop offset="0.55" stop-color="#4F46E5"/>
      <stop offset="1" stop-color="#10B981"/>
    </linearGradient>
  </defs>
  <rect width="64" height="64" rx="16" fill="#0F172A"/>
  <rect x="5" y="5" width="54" height="54" rx="14" fill="url(#bg)"/>
  <path
    d="M16 41c4.7-7.4 10.1-11.1 16-11.1S43.3 33.6 48 41"
    fill="none"
    stroke="#E0F2FE"
    stroke-width="4"
    stroke-linecap="round"
  />
  <path
    d="M23 41h18"
    fill="none"
    stroke="#E0F2FE"
    stroke-width="4"
    stroke-linecap="round"
  />
  <path
    d="M25 34.8V19.5a3 3 0 0 1 6 0v12.2M31 31.7V16.5a3 3 0 0 1 6 0V32M37 32.6V20.2a3 3 0 0 1 6 0v17.4c0 8.1-5.1 13.9-13.3 13.9h-1.2c-5.5 0-9.3-2.8-12.1-7.3l-3.1-5a3.2 3.2 0 0 1 5.2-3.7l3.8 4.6"
    fill="#F8FAFC"
    stroke="#0F172A"
    stroke-width="2.8"
    stroke-linecap="round"
    stroke-linejoin="round"
  />
  <path
    d="M43 36.8l2.2-3.9a3.1 3.1 0 0 1 5.6 2.5l-2.3 6.1c-2.3 6.1-7 10-14 10"
    fill="#F8FAFC"
    stroke="#0F172A"
    stroke-width="2.8"
    stroke-linecap="round"
    stroke-linejoin="round"
  />
</svg>
